<?xml version="1.0" encoding="UTF-8"?>
<svg id="Layer_1" data-name="Layer 1" xmlns="http://www.w3.org/2000/svg" viewBox="0 0 620.49 556.42">
  <defs>
    <style>
      .cls-1 {
        fill: none;
        stroke: #000;
        stroke-miterlimit: 10;
        stroke-width: 4px;
      }

      .cls-2 {
        fill: #303030;
      }

      .cls-2, .cls-3, .cls-4, .cls-5 {
        stroke-width: 0px;
      }

      .cls-3 {
        fill: #ff8600;
      }

      .cls-4 {
        fill: #7f7f7f;
      }

      .cls-5 {
        fill: #ffbf17;
      }
    </style>
  </defs>
  <path class="cls-1" d="m287.01,264.62c27.02-231.52,216.8,10.36,157.28-141.03"/>
  <ellipse class="cls-2" cx="168.09" cy="395.06" rx="161.29" ry="168.14" transform="translate(-240.81 525.94) rotate(-84.7)"/>
  <path class="cls-2" d="m272.9,326.73l-65.06-51.58c-13.69-10.86-11.58-32.24,3.98-40.19l29.76-15.22c8.28-4.23,18.26-3.31,25.62,2.38l43.48,33.61c7.52,5.81,10.9,15.51,8.63,24.74l-8.17,33.18c-4.18,16.98-24.53,23.93-38.23,13.07Z"/>
  <g>
    <polygon class="cls-3" points="388.75 54.29 454.35 87.63 471.21 0 490.74 102.09 572.89 32.18 521.41 124.75 620.49 182.53 512.83 173.25 523.18 245.96 483.05 195.66 460.59 290.65 446.16 190.45 360.82 225.11 417.47 157.45 323.99 118.75 428.96 123.78 388.75 54.29"/>
    <polygon class="cls-5" points="416.68 86.82 460.03 108.86 471.17 50.95 484.08 118.41 538.37 72.22 504.35 133.39 569.83 171.57 498.68 165.45 505.52 213.5 479 180.25 464.15 243.03 454.62 176.81 398.22 199.72 435.65 155 373.88 129.43 443.25 132.75 416.68 86.82"/>
  </g>
  <path class="cls-4" d="m82.3,490.07c4.97,1.07,8.6-4.62,5.57-8.7-8.78-11.85-21.88-36.3-27.13-80.93-5.14-43.7,5.82-72.33,14.76-87.65,2.84-4.87-2.48-10.48-7.39-7.7-29.47,16.65-50.42,63.71-46.17,99.87,4.41,37.5,28.86,78.32,60.35,85.1Z"/>
</svg>