<?xml version="1.0" encoding="UTF-8"?>
<svg id="Layer_1" data-name="Layer 1" xmlns="http://www.w3.org/2000/svg" viewBox="0 0 142.1 164.54">
  <defs>
    <style>
      .cls-1 {
        fill: #49b151;
        opacity: .8;
      }

      .cls-1, .cls-2, .cls-3, .cls-4 {
        stroke-width: 0px;
      }

      .cls-1, .cls-4 {
        isolation: isolate;
      }

      .cls-2 {
        fill: #5a0e11;
      }

      .cls-3 {
        fill: #3a2226;
      }

      .cls-4 {
        fill: #b7cfd1;
        opacity: .5;
      }
    </style>
  </defs>
  <g id="Ben">
    <path class="cls-3" d="m68.19,1.1c2.53,4.16,5.1,8.71,6.49,13.4.77,2.61.29,5.16-.12,7.79-.4,2.55-.8,5.09-1.2,7.64-1.63,10.43-3.27,20.85-4.9,31.28-.15.94,1.3,1.35,1.45.4,1.34-8.54,2.67-17.08,4.01-25.62.66-4.19,1.31-8.37,1.97-12.56.3-1.94.73-3.91.74-5.88.02-1.83-.48-3.57-1.15-5.26-1.64-4.15-3.68-8.14-6-11.94-.5-.82-1.8-.07-1.3.76h.01Z"/>
    <path class="cls-3" d="m80.45,42.02c.44,2.41.74,4.76.36,7.2-.37,2.43-.87,4.84-1.31,7.25-.15.8.22,1.62,1.05,1.85.73.2,1.7-.25,1.85-1.05.47-2.6,1.03-5.2,1.39-7.82.39-2.81.06-5.46-.44-8.23-.15-.8-1.11-1.25-1.85-1.05-.84.23-1.19,1.05-1.05,1.85h0Z"/>
    <path class="cls-3" d="m97.91,48.59c-4.52,2.06-8.71,4.74-12.51,7.93-.62.52-.54,1.58,0,2.12.62.62,1.5.52,2.12,0,3.6-3.02,7.63-5.51,11.9-7.46.74-.34.92-1.4.54-2.05-.44-.76-1.31-.88-2.05-.54h0Z"/>
    <path class="cls-3" d="m136.16,32.09c-3.95,1.19-7.9,2.38-11.85,3.58-1.85.56-3.79,1.02-5.58,1.74-1.65.67-2.83,1.89-4.04,3.15-5.81,6.07-11.62,12.14-17.43,18.21-3.3,3.45-6.61,6.9-9.91,10.35-.67.7.39,1.76,1.06,1.06,7.23-7.56,14.47-15.11,21.7-22.67,1.77-1.84,3.53-3.69,5.3-5.53.86-.9,1.71-1.9,2.76-2.6s2.32-.99,3.52-1.35c4.96-1.5,9.92-2.99,14.88-4.49.92-.28.53-1.73-.4-1.45h-.01Z"/>
    <path class="cls-3" d="m.9,115.16c4.9-1.62,9.09-4.97,13.31-7.84,4.47-3.04,9-6.01,13.41-9.14,1.95-1.38,3.86-2.84,5.6-4.48,1.88-1.77,3.42-3.82,5.1-5.78,2.92-3.39,6.6-5.9,10.87-7.25,4.73-1.49,9.8-1.52,14.52.02.92.3,1.31-1.15.4-1.45-8.08-2.63-17.29-.82-23.82,4.6-1.94,1.61-3.48,3.57-5.08,5.5s-3.38,3.7-5.35,5.29c-4.27,3.45-9.01,6.37-13.55,9.45-2.56,1.74-5.12,3.49-7.69,5.22-2.56,1.73-5.15,3.42-8.1,4.4-.91.3-.52,1.75.4,1.45h-.02Z"/>
    <path class="cls-3" d="m82.31,89.86c1.46,1.97,2.93,3.95,4.39,5.92,1.31,1.76,2.7,3.55,3.38,5.66,1.38,4.28,1.12,9.38.2,13.73-.47,2.2-1.36,4.25-1.92,6.42-.54,2.07-.18,4.13.12,6.21.68,4.6,1.58,9.16,2.7,13.67,1.27,5.12,2.82,10.17,4.63,15.13.33.9,1.78.51,1.45-.4-3.24-8.88-5.64-18.06-7.12-27.41-.38-2.4-.93-4.84-.22-7.23.64-2.16,1.46-4.23,1.89-6.45.83-4.22.99-8.81,0-13.03-.56-2.38-1.84-4.37-3.27-6.32-1.64-2.23-3.29-4.45-4.94-6.67-.57-.77-1.87-.02-1.3.76h0Z"/>
    <path class="cls-3" d="m65.67,70.15c-10.47-8.41-19.22-20.55-33.28-22.91-4.65-.78-9.38-.63-14.07-.46-.96.03-.97,1.53,0,1.5,7.75-.28,15.46-.3,22.51,3.36,5.84,3.03,10.66,7.63,15.41,12.1,2.72,2.56,5.45,5.12,8.36,7.47.75.6,1.81-.46,1.06-1.06h.01Z"/>
    <path class="cls-3" d="m86.65,80.89c4.14-.46,8.28-.93,12.42-1.38,4.09-.45,8.25-.83,12.36-.27,6.99.94,13.22,4.53,19.15,8.12,3.42,2.07,6.81,4.19,10.38,6.01.86.44,1.62-.86.76-1.3-6.37-3.26-12.19-7.5-18.63-10.63-3.09-1.5-6.32-2.74-9.7-3.4-4.08-.79-8.23-.64-12.35-.24-4.8.47-9.59,1.05-14.38,1.58-.95.11-.96,1.61,0,1.5h-.01Z"/>
  </g>
  <g id="Krop">
    <path class="cls-3" d="m89.65,75.55c-2.8,6.15-7.91,3.12-14.54.1s-12.11-5.23-9.31-11.38c2.8-6.15,12.83-13.91,19.46-10.89s7.2,16.02,4.4,22.17h-.01Z"/>
    <path class="cls-2" d="m86.45,86.28c-3.06,6.73-14.14,12.89-20.86,9.83s-8.65-15.15-5.59-21.87c3.06-6.73,9.95-5.55,16.68-2.49s12.83,7.81,9.77,14.53Z"/>
    <ellipse class="cls-3" cx="60" cy="108.92" rx="25.43" ry="19.69" transform="translate(-64 118.37) rotate(-65.51)"/>
  </g>
  <g id="Vinger_og_øjne" data-name="Vinger og øjne">
    <path class="cls-4" d="m65.12,74.05c4.13,2.19.59,18.53-5.05,30.47-3.76,7.96-8.04,13.07-11.69,17.37-6.51,7.66-14.93,17.33-26.54,18.59-1.84.2-7.21.78-9.49-2.22-1.53-2.01-1.11-4.9-.44-7.34,5.41-19.76,37.06-46.31,43.81-51.9,4.15-3.44,7.39-6.03,9.4-4.96h0Z"/>
    <path class="cls-4" d="m83.86,82.61c-4.34-1.67-14.32,11.74-19.62,23.84-3.53,8.06-4.59,14.64-5.45,20.21-1.53,9.93-3.31,22.62,3.29,32.18,1.05,1.51,4.11,5.94,7.85,5.68,2.5-.18,4.4-2.39,5.81-4.5,11.33-17.06,10.7-58.32,10.51-67.07-.11-5.38-.28-9.52-2.39-10.33h0Z"/>
    <path class="cls-1" d="m89.06,59.32c-1.68.94-2.09,2.88-2.69,5.92-.89,4.51-1.41,7.15.15,8.89,2.4,2.68,8.8,2.26,11.58-1.45,2.44-3.25.95-7.5.73-8.07-.27-.74-1.3-3.4-4.11-4.81-.62-.31-3.44-1.73-5.66-.48h0Z"/>
    <path class="cls-1" d="m79.56,54.57c.3,1.85-.85,3.44-2.69,5.92-2.73,3.67-4.33,5.82-6.51,5.86-3.34.07-6.78-4.84-5.73-9.33.92-3.94,4.86-5.71,5.39-5.95.69-.3,3.21-1.34,5.88-.27.59.24,3.26,1.32,3.66,3.77Z"/>
  </g>
</svg>