<?xml version="1.0" encoding="UTF-8"?>
<svg id="Layer_1" data-name="Layer 1" xmlns="http://www.w3.org/2000/svg" viewBox="0 0 556.78 387">
  <defs>
    <style>
      .cls-1 {
        opacity: .1;
      }

      .cls-1, .cls-2 {
        fill: #f2f2f2;
      }

      .cls-1, .cls-2, .cls-3, .cls-4, .cls-5, .cls-6, .cls-7, .cls-8, .cls-9, .cls-10, .cls-11, .cls-12, .cls-13 {
        stroke-width: 0px;
      }

      .cls-2 {
        opacity: .15;
      }

      .cls-14 {
        stroke: #42c943;
        stroke-miterlimit: 10;
      }

      .cls-14, .cls-8 {
        fill: #42c943;
      }

      .cls-4 {
        fill: #fabed8;
      }

      .cls-5 {
        fill: #74c6ff;
      }

      .cls-6 {
        fill: #6fd670;
      }

      .cls-7 {
        fill: #39b54a;
      }

      .cls-9 {
        fill: #a31a3e;
      }

      .cls-10 {
        fill: #333;
      }

      .cls-11 {
        fill: #fff;
      }

      .cls-12 {
        fill: #fff4f7;
      }

      .cls-13 {
        fill: #e69fbf;
      }
    </style>
  </defs>
  <path class="cls-12" d="m551.95,65.06c-6.43,0-6.45,10,0,10s6.45-10,0-10Z"/>
  <polyline class="cls-11" points="0 250.76 14 258.76 27 265.76"/>
  <polyline class="cls-11" points="0 250.76 14 258.76 27 265.76"/>
  <polygon class="cls-14" points="97.41 320.86 87.87 323.86 39.31 325.86 90.47 330.86 35.84 339.86 87.01 339.86 47.98 355.86 160.2 330.5 112.06 315.32 97.37 312.86 97.41 320.86"/>
  <ellipse class="cls-8" cx="99.47" cy="273.03" rx="37.98" ry="67" transform="translate(-168.34 160.25) rotate(-47.15)"/>
  <path class="cls-10" d="m112.01,286.1c1.83.04,2.22-3.03.47-3.65-3.41-1.21-7.19-2.97-11.05-5.53-8.94-5.93-19.99-16.31-26.82-23.05-1.36-1.34-3.25.6-2.34,2.4,4.11,8.13,11.11,19.71,19.71,25.06,5.7,3.54,13.37,4.64,20.04,4.78Z"/>
  <ellipse class="cls-8" cx="41.31" cy="325.86" rx="4.2" ry="4.5"/>
  <ellipse class="cls-8" cx="32.9" cy="340.86" rx="4.2" ry="4.5"/>
  <ellipse class="cls-8" cx="45.51" cy="355.86" rx="4.2" ry="4.5"/>
  <polygon class="cls-14" points="277.2 320.5 288.2 323.5 344.2 325.5 285.2 330.5 348.2 339.5 289.2 339.5 334.2 355.5 234.2 335.5 260.31 314.96 277.25 312.5 277.2 320.5"/>
  <ellipse class="cls-8" cx="272.51" cy="272.67" rx="74.58" ry="40.59" transform="translate(-105.47 196.89) rotate(-33.68)"/>
  <path class="cls-10" d="m257.58,285.75c-2.18.04-2.65-3.03-.56-3.65,4.05-1.21,8.55-2.97,13.15-5.53,10.63-5.93,23.79-16.31,31.91-23.05,1.62-1.34,3.87.6,2.79,2.4-4.89,8.13-13.21,19.71-23.44,25.06-6.78,3.54-15.91,4.64-23.84,4.78Z"/>
  <path class="cls-6" d="m158.52,327.75l-13.61-2.16c-.49-.08-.91-.41-1.13-.9l-6.09-13.5c-.55-1.22-2.14-1.22-2.69,0l-6.36,14.09c-.05.12-5.58,17.32-5.65,17.42l-20.77,13c-.98,1.27-.5,5.53.94,5l21.71-9c1.18-.43-1.48,5.71-1.89,7l-7.16,19.11c-.53,1.67,1.39,2.95,2.5,1.67l16.93-23.79c.92-1.05.99,5.82,1.04,7.28l.55,18.13c.06,1.9,2.53,2.19,2.96.35l8.96-39.04c-.36-.67-.55-1.41-.41-2.17.18-.96,1.09-1.54,2.02-1.55.39,0,.77.09,1.11.24l7.86-8.38c.89-.95.4-2.61-.83-2.8Z"/>
  <path class="cls-6" d="m242.98,308.49l6.73,14.09c.06.12,5.91,17.32,5.99,17.42l22,13c1.04,1.27.53,5.53-1,5l-23-9c-1.25-.43,1.57,5.71,2,7l7.58,19.11c.56,1.67-1.47,2.95-2.65,1.67l-17.93-23.79c-.97-1.05-1.05,5.82-1.1,7.28l-.59,18.13c-.06,1.9-2.68,2.19-3.13.35l-9.56-39.35c-.07-.3-.22-.56-.43-.78l-10.71-10.78c-.94-.95-.42-2.61.88-2.8l14.42-2.16c.52-.08.97-.41,1.2-.9l6.45-13.5c.58-1.22,2.27-1.22,2.85,0Z"/>
  <ellipse class="cls-6" cx="191.2" cy="256.5" rx="97.5" ry="89.5"/>
  <ellipse class="cls-6" cx="239.7" cy="381.5" rx="5" ry="4.5"/>
  <ellipse class="cls-6" cx="262.7" cy="375.5" rx="5" ry="4.5"/>
  <ellipse class="cls-6" cx="278.7" cy="355.5" rx="5" ry="4.5"/>
  <ellipse class="cls-6" cx="138.7" cy="382.5" rx="5" ry="4.5"/>
  <ellipse class="cls-6" cx="115.7" cy="376.5" rx="5" ry="4.5"/>
  <ellipse class="cls-6" cx="98.7" cy="358.5" rx="5" ry="4.5"/>
  <ellipse class="cls-8" cx="341.7" cy="325.5" rx="5" ry="4.5"/>
  <ellipse class="cls-8" cx="351.7" cy="340.5" rx="5" ry="4.5"/>
  <ellipse class="cls-8" cx="336.7" cy="355.5" rx="5" ry="4.5"/>
  <g>
    <path class="cls-8" d="m230.2,317.5c-1.26,2.14-7.74,4.08-10,5-10.63,4.32-23.8,6.69-35.23,6.34-2.97-.09-5.95-.24-8.88-.7-4.19-.67-7.95-2.02-11.89-3.63-4.99-2.04-11.47-7.03-16-10-.67,6.75,3.4,15.85,2.28,22.71,11.44,4.71,23.82,6.84,36.15,6.99,12.66.16,25.29-1.71,37.62-4.68.33-.08.69-.18.91-.45.22-.28.24-.67.25-1.03.13-5.98,5.47-14.61,4.78-20.54Z"/>
    <path class="cls-8" d="m228.9,316.74c-.9,1.39-3.32,2.12-4.79,2.7-1.94.76-3.9,1.47-5.85,2.21-5.65,2.15-11.55,3.65-17.51,4.61-12.25,1.97-25.27,1.81-36.71-3.46-5.42-2.49-10.13-6.34-15.09-9.6-1.03-.68-2.17.24-2.26,1.3-.32,3.73.52,7.48,1.24,11.12s1.65,7.48,1.09,11.2c-.13.88.22,1.51,1.05,1.85,13.07,5.34,27.29,7.39,41.36,7.01,7.18-.19,14.35-1,21.42-2.24,3.64-.64,7.25-1.39,10.85-2.24,1.48-.35,2.79-.71,3.13-2.39.25-1.27.22-2.55.53-3.83,1.38-5.69,4.92-11.47,4.32-17.48-.19-1.9-3.19-1.92-3,0,.49,4.99-2.22,9.99-3.65,14.64-.34,1.1-.64,2.21-.85,3.34-.1.55-.18,1.1-.23,1.65-.01.15.03.79-.06.9-.11.14-.89.23-1,.26-3.36.79-6.74,1.5-10.14,2.11-13.32,2.38-27.08,3.19-40.5,1.18-7.33-1.1-14.53-3.02-21.4-5.82l1.05,1.85c1.17-7.85-2.91-15.31-2.23-23.11l-2.26,1.3c4.73,3.11,9.22,6.69,14.3,9.22,5.91,2.95,12.43,4.68,19.01,5.12,12.66.86,25.61-.92,37.53-5.3,2.42-.89,4.85-1.78,7.24-2.75,2.11-.86,4.68-1.83,5.97-3.84,1.05-1.63-1.54-3.13-2.59-1.51Z"/>
  </g>
  <ellipse class="cls-2" cx="190.36" cy="256.55" rx="70.5" ry="70.55"/>
  <ellipse class="cls-7" cx="190.2" cy="120" rx="146.5" ry="96"/>
  <path class="cls-1" d="m61.44,166.98c-9.01-21.6,65.93-50.04,124.95-50.94,63.41-.97,148.63,19.35,139.65,41.47-11.55,28.43-77,62.89-139.51,61.55-55.86-1.2-116.69-31.93-125.09-52.07Z"/>
  <path class="cls-9" d="m122.7,147c-.53-11.29,43.43-3.37,67-3s66.93-12.51,67-1c.07,11.55-46.44,44.1-71.4,44.12-22.31.02-62.07-28.92-62.6-40.12Z"/>
  <path class="cls-13" d="m153.7,177c-4-2.26,16.77-6.79,32.95-7.38,17.38-.64,40.06,2.95,36.05,5.38-6.89,4.18-19.26,12.91-36.4,13.1-15.32.17-27.52-8.23-32.6-11.1Z"/>
  <path class="cls-6" d="m145.64,333.85c.29.94.42,1.91.6,2.86.2,1.05.5,2.09,1.04,3.03.39.68,1.38.97,2.05.54s.95-1.32.54-2.05c-.06-.11-.12-.22-.18-.33-.03-.06-.05-.11-.08-.17-.06-.15-.05-.11.04.1,0-.09-.1-.26-.13-.35s-.06-.18-.08-.26c-.14-.46-.24-.93-.33-1.4-.17-.93-.31-1.87-.58-2.77-.23-.75-1.06-1.3-1.85-1.05s-1.29,1.04-1.05,1.85h0Z"/>
  <path class="cls-6" d="m147.84,343.08c.53-.42,1.02-.87,1.37-1.47.15-.26.25-.54.38-.8s.29-.54.46-.8c.21-.31.25-.8.15-1.16s-.36-.73-.69-.9c-.35-.18-.77-.28-1.16-.15s-.67.35-.9.69c-.2.3-.38.61-.53.94s-.28.64-.49.92l.23-.3c-.27.35-.61.63-.96.9-.28.22-.44.72-.44,1.06,0,.37.16.81.44,1.06s.66.46,1.06.44l.4-.05c.25-.07.47-.2.66-.39h0Z"/>
  <path class="cls-6" d="m147.41,342.99c.42-.25.82-.55,1.2-.86l-2.51-1.46c-.03.08-.06.16-.09.25l.15-.36c-.08.19-.17.36-.29.53l-.15.36c-.06.2-.07.4-.03.6,0,.14.03.26.1.38.06.19.16.35.31.48l.3.23.36.15c.2.06.4.07.6.03.2,0,.39-.07.56-.18.13-.1.25-.19.38-.29.17-.09.32-.22.42-.39.13-.14.22-.31.27-.51.06-.2.07-.4.03-.6,0-.2-.07-.39-.18-.56l-.23-.3c-.19-.19-.41-.31-.66-.39l-.4-.05c-.27,0-.52.07-.76.2-.13.1-.25.19-.38.29l2.05,2.05c.08-.12.15-.25.22-.38.12-.24.23-.5.31-.75l.05-.4c0-.21-.04-.4-.13-.58-.04-.13-.1-.24-.19-.33-.11-.16-.25-.29-.42-.39l-.36-.15-.4-.05c-.21,0-.4.04-.58.13-.19.06-.35.16-.48.31-.03.02-.06.05-.09.07l.3-.23c-.26.2-.53.38-.81.55-.17.09-.32.22-.42.39-.13.14-.22.31-.27.51-.06.2-.07.4-.03.6,0,.2.07.39.18.56l.23.3c.19.19.41.31.66.39l.4.05c.27,0,.52-.07.76-.2h0Z"/>
  <circle class="cls-8" cx="91.2" cy="53.5" r="53.5"/>
  <ellipse class="cls-11" cx="93.7" cy="62" rx="43" ry="39"/>
  <circle class="cls-8" cx="287.2" cy="53.5" r="53.5"/>
  <ellipse class="cls-11" cx="289.7" cy="62" rx="43" ry="39"/>
  <ellipse class="cls-4" cx="92.32" cy="130.44" rx="26.73" ry="18.27" transform="translate(-47.14 52.41) rotate(-25.48)"/>
  <ellipse class="cls-5" cx="287.7" cy="62.5" rx="38" ry="35.5"/>
  <ellipse class="cls-4" cx="287.68" cy="130.74" rx="18.27" ry="26.73" transform="translate(105.58 388.99) rotate(-79.25)"/>
  <ellipse class="cls-3" cx="284.7" cy="62" rx="33" ry="29"/>
  <circle class="cls-11" cx="301.2" cy="53.5" r="7.5"/>
  <ellipse class="cls-5" cx="95.7" cy="63.5" rx="38" ry="35.5"/>
  <ellipse class="cls-3" cx="99.7" cy="62" rx="33" ry="29"/>
  <circle class="cls-11" cx="83.2" cy="54.5" r="7.5"/>
</svg>