<?xml version="1.0" encoding="utf-8"?>
<!-- Generator: Adobe Illustrator 28.0.0, SVG Export Plug-In . SVG Version: 6.00 Build 0)  -->
<svg version="1.1" id="Layer_1" xmlns="http://www.w3.org/2000/svg" xmlns:xlink="http://www.w3.org/1999/xlink" x="0px" y="0px"
	 viewBox="0 0 293.5 274.4" style="enable-background:new 0 0 293.5 274.4;" xml:space="preserve">
<style type="text/css">
	.st0{fill:#1A1A1A;}
	.st1{fill:#333333;stroke:#333333;stroke-miterlimit:10;}
	.st2{fill:#333333;}
	.st3{fill:#CD1513;}
	.st4{opacity:0.95;fill:#E6E6E6;enable-background:new    ;}
</style>
<g id="Hoved">
	<path class="st0" d="M180.2,75.6c6.5,0.6,12.9,1.9,19.1,4.2c0.3-1.5,0.5-3.1,0.6-4.7C193.4,75.1,186.8,75.3,180.2,75.6L180.2,75.6z
		"/>
	<path class="st0" d="M89.6,78.6c0.1,0.4,0.1,0.7,0.2,1.1c13.8,1.8,27.9,0.4,42.1-1.4C117.7,79.1,103.6,79.4,89.6,78.6L89.6,78.6z"
		/>
	<path class="st1" d="M180.2,82.4c6.6-0.3,13.2-0.5,19.8-0.6c0.1-1.1,0.1-2.2,0.1-3.3c0-29.1-24.9-52.6-55.5-52.6
		S89.1,49.4,89.1,78.5c0,2.5,0.2,5,0.6,7.4c14,0.9,28.1,0.5,42.3-0.3C148.1,83.3,164.4,80.6,180.2,82.4L180.2,82.4z"/>
</g>
<g id="Ben">
	<path class="st2" d="M193.7,1.4c-4.3,1-8.5,2.3-12.6,3.8c-3.9,1.4-7.9,2.9-11.4,5.2c-6.4,4.2-8.8,11.5-10.7,18.5
		c-0.6,2.2,2.9,3.2,3.5,1c1.7-6.4,3.7-13.3,9.8-16.8c3.3-2,7.1-3.4,10.7-4.7c3.9-1.4,7.8-2.5,11.8-3.5C196.9,4.4,196,0.9,193.7,1.4
		L193.7,1.4L193.7,1.4z"/>
	<path class="st2" d="M64.8,3.8c4.7,2.2,9.2,5,13.1,8.5s7.9,7.5,8.6,12.7S85,35.8,83.3,40.8s-3.2,10.1-2,15.3
		c1.1,4.7,4.4,9.2,9.3,10.3c2.3,0.5,3.2-3,1-3.5c-4-0.9-6.3-4.8-6.9-8.6c-0.8-5.2,1.4-10.5,3.1-15.3c1.8-5.1,3.3-10.5,2.1-15.9
		s-5-9.3-8.7-12.7C76.8,6.4,72,3.1,66.7,0.7C64.6-0.3,62.8,2.8,64.8,3.8L64.8,3.8L64.8,3.8z"/>
	<path class="st2" d="M100.3,5.5c6.6,1.7,13.3,3.7,18.7,8c2.4,1.9,4.4,4.2,5.8,6.9c1.7,3.1,2.4,6.7,3.1,10.2c0.5,2.3,4,1.3,3.5-1
		c-0.8-3.7-1.6-7.4-3.4-10.8c-1.6-3-3.9-5.7-6.5-7.8c-5.9-4.8-13-7.1-20.2-8.9C99,1.4,98,4.9,100.3,5.5L100.3,5.5L100.3,5.5z"/>
	<path class="st2" d="M229.3,0.2c-6.2,3.1-12.2,6.6-17.9,10.6c-4.8,3.3-9.9,7.1-11.9,12.8c-1.8,5.1-0.2,10.4,1.9,15.1
		c1.9,4.5,4.7,9,5,13.9c0.4,5.8-3.6,11.3-9.6,11.9c-2.3,0.2-2.3,3.8,0,3.6c5.7-0.5,10.6-4.3,12.5-9.7s0-10.5-2-15.3s-4.8-9.3-5-14.4
		c-0.2-5.9,4.2-10.1,8.6-13.3c6.4-4.6,13.1-8.7,20.2-12.2C233.2,2.3,231.3-0.8,229.3,0.2L229.3,0.2L229.3,0.2z"/>
	<path class="st2" d="M291.8,122.3c-6.4,0.4-12.8,0.8-19.2,1.2c-3.2,0.2-6.3,0.4-9.5,0.6c-2.9,0.2-5.8,0.4-8.6-0.4
		c-4.9-1.5-8.1-6.5-11.5-10.1s-7.1-7.3-11.2-10.3c-4.5-3.3-9.7-5.8-15.3-6.6c-1-0.1-1.9,0.2-2.2,1.3c-0.2,0.8,0.3,2.1,1.3,2.2
		c10.3,1.5,18.2,8.6,25,16c3.5,3.8,6.7,8.4,11.6,10.5c2.7,1.1,5.6,1.4,8.5,1.2c3.1-0.1,6.2-0.4,9.3-0.6c7.3-0.4,14.6-0.9,21.9-1.4
		C294.1,125.7,294.1,122.1,291.8,122.3L291.8,122.3L291.8,122.3z"/>
	<path class="st2" d="M236.2,196.6c4.5,5,5.8,11.9,5.5,18.5c-0.4,7.6-3.1,14.9-5.5,22.1c-1.5,4.4-2.8,8.9-3.7,13.4
		c-0.2,1,0.2,1.9,1.3,2.2c14.9,4.3,28.9,10.9,41.8,19.6c1.9,1.3,3.7-1.8,1.8-3.1c-13.1-8.8-27.5-15.6-42.6-19.9l1.3,2.2
		c2.8-15.6,12.4-30.5,8.3-46.9c-1-4-2.9-7.6-5.6-10.6C237.2,192.3,234.7,194.8,236.2,196.6L236.2,196.6L236.2,196.6z"/>
	<path class="st2" d="M53,191.5c-8.8,10.8-11.9,25.9-7.7,39.2c1.2,3.7,3,7.2,4.9,10.6c1,1.8,2.1,3.5,3.1,5.2c0.8,1.3,2.5,3.3,2,4.9
		c-0.7,2.3-5,2.6-6.9,2.9c-3.8,0.7-7.4,1.7-11,2.9c-8.1,2.8-15.6,7-22.3,12.4c-0.8,0.6-0.6,1.9,0,2.5c0.7,0.8,1.8,0.6,2.6,0
		c5.9-4.7,12.5-8.4,19.6-11c3.6-1.3,7.2-2.4,11-3.1c3-0.6,6.2-0.9,8.7-2.9c1.1-0.9,1.9-2.2,2.1-3.6c0.2-2-0.7-3.8-1.7-5.5
		c-2-3.5-4.2-6.9-6-10.5c-3.2-6.4-4.6-13.3-4.1-20.4c0.6-7.6,3.5-15.2,8.4-21.1C57,192.2,54.5,189.7,53,191.5L53,191.5L53,191.5z"/>
	<path class="st2" d="M78.1,96.3c-10.8-0.1-21.5,4.7-28.3,13.1c-3.3,4-5.7,9.2-10.2,12s-10.4,3.1-15.7,2.9
		c-7.3-0.4-14.5-1.4-21.7-2.9c-2.3-0.5-3.2,3-1,3.5c6.5,1.4,13,2.4,19.6,2.9c5.6,0.4,11.5,0.6,16.8-1.4c2.6-1,4.9-2.4,6.9-4.3
		s3.5-4.2,5.1-6.4c3.1-4.4,6.6-8.3,11.3-11.1c5.2-3.1,11.1-4.7,17.2-4.6C80.4,99.9,80.4,96.3,78.1,96.3L78.1,96.3L78.1,96.3z"/>
</g>
<g id="Krop">
	<path class="st3" d="M198.4,75.1c-36.2,0.2-72.9,5.5-109,3.6C67,98.5,52.6,130,52.6,165.4c0,60.2,41.9,109,93.5,109
		s93.5-48.8,93.5-109C239.6,127.8,223.3,94.7,198.4,75.1z"/>
</g>
<g id="Prikker">
	<path d="M127.6,97.9c0,11.3,8.1,20.5,18,20.5s18-9.2,18-20.5c0-10.7-7.2-19.5-16.4-20.4c-1.7,0.1-3.4,0.2-5.1,0.3
		C133.8,79.7,127.6,87.9,127.6,97.9L127.6,97.9z"/>
	<path d="M142,77.8c1.7-0.1,3.4-0.2,5.1-0.3c-0.5-0.1-1-0.1-1.6-0.1C144.4,77.4,143.2,77.5,142,77.8L142,77.8z"/>
	<circle cx="91.1" cy="122.9" r="10.5"/>
	<circle cx="113.6" cy="184.4" r="14"/>
	<path d="M84.8,249.3l0.5,0.4c5.9-1.8,10.2-7.3,10.2-13.9c0-8-6.5-14.5-14.5-14.5c-6.5,0-12,4.3-13.8,10.1c0.4,0.7,0.9,1.5,1.3,2.2
		C73.3,239.6,80.1,243.4,84.8,249.3L84.8,249.3z"/>
	<path d="M68.6,233.7c1.6,2.5,3.2,5.1,5.1,7.4l11.1,8.2C80.1,243.4,73.3,239.6,68.6,233.7z"/>
	<circle cx="200.1" cy="125.9" r="11.5"/>
	<circle cx="179.1" cy="182.9" r="12.5"/>
	<path d="M223.6,230.4c-2-4.7-6.6-8-12-8c-7.2,0-13,5.8-13,13c0,5.9,3.9,10.9,9.3,12.5C214.3,243.3,219.9,237.3,223.6,230.4
		L223.6,230.4z"/>
	<path class="st2" d="M145.7,118.4c0,0,1.8,40.4,1.8,75.5c0,37.7-0.2,80.5-1.8,80.5s-1.8-44.5-1.7-81.7
		C144,159.5,145.7,118.4,145.7,118.4z"/>
</g>
<g id="_Øjne">
	<path class="st4" d="M130.2,39c0.1,4.4-3.1,7.8-8.2,13c-7.6,7.7-12.1,12.2-17.2,11.6c-7.9-1-14.6-13.7-10.8-23.9
		c3.4-9,13.3-11.8,14.6-12.2c1.7-0.5,8-2.1,14,1.4C124,29.6,130,33.1,130.2,39L130.2,39z"/>
	<path class="st4" d="M186.9,63.7c-4.4,0.4-8-2.6-13.5-7.5c-8.1-7.2-12.9-11.3-12.6-16.5c0.5-7.9,12.8-15.2,23.2-11.9
		c9.1,2.9,12.6,12.6,13,13.9c0.6,1.7,2.5,7.9-0.5,14C195.8,57,192.8,63.2,186.9,63.7L186.9,63.7z"/>
</g>
</svg>
