<svg width="1393" height="345" viewBox="0 0 1393 345" fill="none" xmlns="http://www.w3.org/2000/svg">
<path d="M140.205 58H134.153V36.1818H140.673C142.719 36.1818 144.469 36.6151 145.925 37.4815C147.381 38.348 148.496 39.5909 149.271 41.2102C150.052 42.8224 150.439 44.7578 150.432 47.0163C150.425 49.3246 150.02 51.299 149.217 52.9396C148.415 54.5732 147.254 55.8267 145.734 56.7003C144.214 57.5668 142.371 58 140.205 58ZM135.485 56.7642H140.151C142.097 56.7642 143.738 56.3771 145.073 55.603C146.408 54.8217 147.417 53.7031 148.099 52.2472C148.788 50.7912 149.129 49.0476 149.121 47.0163C149.121 45.0135 148.791 43.2983 148.131 41.8707C147.47 40.4361 146.508 39.3352 145.244 38.5682C143.987 37.8011 142.445 37.4176 140.62 37.4176H135.485V56.7642ZM161.628 58V36.1818H173.773V37.4176H162.96V46.4624H173.123V47.6982H162.96V56.7642H174.029V58H161.628ZM197.055 41.6364C196.942 40.2798 196.388 39.1825 195.393 38.3445C194.406 37.5064 193.128 37.0874 191.558 37.0874C190.5 37.0874 189.559 37.2827 188.735 37.6733C187.911 38.0639 187.265 38.5966 186.796 39.2713C186.327 39.946 186.093 40.7202 186.093 41.5938C186.093 42.1548 186.2 42.6626 186.413 43.1172C186.633 43.5646 186.942 43.9659 187.339 44.321C187.737 44.669 188.21 44.9744 188.756 45.2372C189.303 45.5 189.907 45.7308 190.567 45.9297L192.954 46.6328C193.771 46.8814 194.523 47.169 195.212 47.4957C195.908 47.8224 196.512 48.2131 197.023 48.6676C197.542 49.1151 197.943 49.6406 198.227 50.2443C198.518 50.848 198.664 51.544 198.664 52.3324C198.664 53.483 198.366 54.5128 197.769 55.4219C197.18 56.331 196.338 57.0483 195.244 57.5739C194.158 58.0923 192.876 58.3516 191.398 58.3516C189.992 58.3516 188.767 58.1136 187.723 57.6378C186.686 57.1619 185.866 56.5014 185.262 55.6562C184.658 54.804 184.317 53.8239 184.239 52.7159H185.603C185.674 53.6179 185.962 54.3991 186.466 55.0597C186.977 55.7131 187.656 56.2173 188.501 56.5724C189.346 56.9276 190.312 57.1051 191.398 57.1051C192.57 57.1051 193.604 56.9062 194.499 56.5085C195.393 56.1037 196.093 55.5426 196.597 54.8253C197.102 54.108 197.354 53.2734 197.354 52.3217C197.354 51.5547 197.173 50.8977 196.81 50.3509C196.448 49.804 195.912 49.3317 195.202 48.9339C194.499 48.5362 193.625 48.1811 192.581 47.8686L190.035 47.1016C188.33 46.5831 187.027 45.8764 186.125 44.9815C185.23 44.0866 184.783 42.9716 184.783 41.6364C184.783 40.5142 185.081 39.5199 185.678 38.6534C186.274 37.7798 187.084 37.0945 188.107 36.5973C189.136 36.1001 190.298 35.8516 191.59 35.8516C192.89 35.8516 194.037 36.1037 195.031 36.608C196.026 37.1051 196.814 37.7905 197.396 38.6641C197.979 39.5305 198.302 40.5213 198.366 41.6364H197.055ZM211.259 36.1818V58H209.927V36.1818H211.259ZM238.861 43C238.698 42.2614 238.421 41.5476 238.03 40.8587C237.639 40.1626 237.139 39.5376 236.528 38.9837C235.924 38.4226 235.214 37.9787 234.397 37.652C233.588 37.3253 232.678 37.1619 231.67 37.1619C230.129 37.1619 228.762 37.5668 227.568 38.3764C226.382 39.179 225.452 40.326 224.777 41.8175C224.11 43.3018 223.776 45.0597 223.776 47.0909C223.776 49.1009 224.11 50.8516 224.777 52.343C225.445 53.8345 226.379 54.9886 227.579 55.8054C228.786 56.6151 230.189 57.0199 231.787 57.0199C233.215 57.0199 234.479 56.6896 235.58 56.0291C236.688 55.3686 237.551 54.424 238.169 53.1953C238.786 51.9666 239.088 50.4964 239.074 48.7848L239.543 49.0085H232.128V47.7727H240.374V49.0085C240.374 50.9332 240.004 52.5916 239.266 53.9837C238.534 55.3686 237.519 56.4339 236.219 57.1797C234.926 57.9254 233.449 58.2983 231.787 58.2983C229.912 58.2983 228.275 57.8331 226.876 56.9027C225.477 55.9723 224.39 54.669 223.616 52.9929C222.849 51.3097 222.465 49.3423 222.465 47.0909C222.465 45.4006 222.686 43.8665 223.126 42.4886C223.566 41.1108 224.195 39.9318 225.012 38.9517C225.828 37.9645 226.801 37.2081 227.931 36.6825C229.06 36.1499 230.306 35.8835 231.67 35.8835C232.906 35.8835 234.017 36.0895 235.004 36.5014C235.992 36.9062 236.844 37.4531 237.561 38.142C238.286 38.8239 238.872 39.5874 239.319 40.4325C239.767 41.2706 240.068 42.1264 240.225 43H238.861ZM268.453 36.1818V58H267.153L253.24 38.6001H253.112V58H251.78V36.1818H253.091L267.004 55.603H267.132V36.1818H268.453ZM279.3 37.4176V36.1818H294.588V37.4176H287.61V58H286.278V37.4176H279.3ZM300.644 58L311.585 36.1818H326.457V37.4176H315.644V46.4624H325.807V47.6982H315.644V56.7642H326.713V58H314.312V37.4176H312.363L302.125 58H300.644ZM305.033 51.022V49.7862H315.005V51.022H305.033ZM354.627 36.1818V58H353.327L339.414 38.6001H339.286V58H337.954V36.1818H339.265L353.178 55.603H353.306V36.1818H354.627ZM366.923 58V36.1818H368.255V48.8487H368.404L379.909 36.1818H381.678L372.207 46.505L381.593 58H379.931L371.355 47.4638L368.255 50.8942V58H366.923ZM408.433 36.1818V58H407.134L393.22 38.6001H393.093V58H391.761V36.1818H393.071L406.985 55.603H407.112V36.1818H408.433ZM422.061 36.1818V58H420.73V36.1818H422.061ZM451.049 36.1818V58H449.749L435.836 38.6001H435.708V58H434.376V36.1818H435.686L449.6 55.603H449.728V36.1818H451.049ZM478.632 43C478.469 42.2614 478.192 41.5476 477.801 40.8587C477.411 40.1626 476.91 39.5376 476.299 38.9837C475.696 38.4226 474.985 37.9787 474.169 37.652C473.359 37.3253 472.45 37.1619 471.441 37.1619C469.9 37.1619 468.533 37.5668 467.34 38.3764C466.154 39.179 465.223 40.326 464.549 41.8175C463.881 43.3018 463.547 45.0597 463.547 47.0909C463.547 49.1009 463.881 50.8516 464.549 52.343C465.216 53.8345 466.15 54.9886 467.35 55.8054C468.558 56.6151 469.961 57.0199 471.559 57.0199C472.986 57.0199 474.25 56.6896 475.351 56.0291C476.459 55.3686 477.322 54.424 477.94 53.1953C478.558 51.9666 478.86 50.4964 478.846 48.7848L479.314 49.0085H471.9V47.7727H480.145V49.0085C480.145 50.9332 479.776 52.5916 479.037 53.9837C478.306 55.3686 477.29 56.4339 475.99 57.1797C474.698 57.9254 473.221 58.2983 471.559 58.2983C469.684 58.2983 468.047 57.8331 466.647 56.9027C465.248 55.9723 464.162 54.669 463.387 52.9929C462.62 51.3097 462.237 49.3423 462.237 47.0909C462.237 45.4006 462.457 43.8665 462.897 42.4886C463.338 41.1108 463.966 39.9318 464.783 38.9517C465.6 37.9645 466.573 37.2081 467.702 36.6825C468.831 36.1499 470.078 35.8835 471.441 35.8835C472.677 35.8835 473.789 36.0895 474.776 36.5014C475.763 36.9062 476.615 37.4531 477.333 38.142C478.057 38.8239 478.643 39.5874 479.091 40.4325C479.538 41.2706 479.84 42.1264 479.996 43H478.632Z" fill="black"/>
<path d="M1009.2 287H1003.15V265.182H1009.67C1011.72 265.182 1013.47 265.615 1014.93 266.482C1016.38 267.348 1017.5 268.591 1018.27 270.21C1019.05 271.822 1019.44 273.758 1019.43 276.016C1019.42 278.325 1019.02 280.299 1018.22 281.94C1017.41 283.573 1016.25 284.827 1014.73 285.7C1013.21 286.567 1011.37 287 1009.2 287ZM1004.49 285.764H1009.15C1011.1 285.764 1012.74 285.377 1014.07 284.603C1015.41 283.822 1016.42 282.703 1017.1 281.247C1017.79 279.791 1018.13 278.048 1018.12 276.016C1018.12 274.013 1017.79 272.298 1017.13 270.871C1016.47 269.436 1015.51 268.335 1014.24 267.568C1012.99 266.801 1011.45 266.418 1009.62 266.418H1004.49V285.764ZM1030.63 287V265.182H1042.77V266.418H1031.96V275.462H1042.12V276.698H1031.96V285.764H1043.03V287H1030.63ZM1066.06 270.636C1065.94 269.28 1065.39 268.183 1064.39 267.344C1063.41 266.506 1062.13 266.087 1060.56 266.087C1059.5 266.087 1058.56 266.283 1057.74 266.673C1056.91 267.064 1056.26 267.597 1055.8 268.271C1055.33 268.946 1055.09 269.72 1055.09 270.594C1055.09 271.155 1055.2 271.663 1055.41 272.117C1055.63 272.565 1055.94 272.966 1056.34 273.321C1056.74 273.669 1057.21 273.974 1057.76 274.237C1058.3 274.5 1058.91 274.731 1059.57 274.93L1061.95 275.633C1062.77 275.881 1063.52 276.169 1064.21 276.496C1064.91 276.822 1065.51 277.213 1066.02 277.668C1066.54 278.115 1066.94 278.641 1067.23 279.244C1067.52 279.848 1067.66 280.544 1067.66 281.332C1067.66 282.483 1067.37 283.513 1066.77 284.422C1066.18 285.331 1065.34 286.048 1064.24 286.574C1063.16 287.092 1061.88 287.352 1060.4 287.352C1058.99 287.352 1057.77 287.114 1056.72 286.638C1055.69 286.162 1054.87 285.501 1054.26 284.656C1053.66 283.804 1053.32 282.824 1053.24 281.716H1054.6C1054.67 282.618 1054.96 283.399 1055.47 284.06C1055.98 284.713 1056.66 285.217 1057.5 285.572C1058.35 285.928 1059.31 286.105 1060.4 286.105C1061.57 286.105 1062.6 285.906 1063.5 285.509C1064.39 285.104 1065.09 284.543 1065.6 283.825C1066.1 283.108 1066.35 282.273 1066.35 281.322C1066.35 280.555 1066.17 279.898 1065.81 279.351C1065.45 278.804 1064.91 278.332 1064.2 277.934C1063.5 277.536 1062.63 277.181 1061.58 276.869L1059.03 276.102C1057.33 275.583 1056.03 274.876 1055.12 273.982C1054.23 273.087 1053.78 271.972 1053.78 270.636C1053.78 269.514 1054.08 268.52 1054.68 267.653C1055.27 266.78 1056.08 266.094 1057.11 265.597C1058.14 265.1 1059.3 264.852 1060.59 264.852C1061.89 264.852 1063.04 265.104 1064.03 265.608C1065.03 266.105 1065.81 266.79 1066.4 267.664C1066.98 268.531 1067.3 269.521 1067.37 270.636H1066.06ZM1080.26 265.182V287H1078.93V265.182H1080.26ZM1107.86 272C1107.7 271.261 1107.42 270.548 1107.03 269.859C1106.64 269.163 1106.14 268.538 1105.53 267.984C1104.92 267.423 1104.21 266.979 1103.4 266.652C1102.59 266.325 1101.68 266.162 1100.67 266.162C1099.13 266.162 1097.76 266.567 1096.57 267.376C1095.38 268.179 1094.45 269.326 1093.78 270.817C1093.11 272.302 1092.78 274.06 1092.78 276.091C1092.78 278.101 1093.11 279.852 1093.78 281.343C1094.44 282.835 1095.38 283.989 1096.58 284.805C1097.79 285.615 1099.19 286.02 1100.79 286.02C1102.21 286.02 1103.48 285.69 1104.58 285.029C1105.69 284.369 1106.55 283.424 1107.17 282.195C1107.79 280.967 1108.09 279.496 1108.07 277.785L1108.54 278.009H1101.13V276.773H1109.37V278.009C1109.37 279.933 1109 281.592 1108.27 282.984C1107.53 284.369 1106.52 285.434 1105.22 286.18C1103.93 286.925 1102.45 287.298 1100.79 287.298C1098.91 287.298 1097.28 286.833 1095.88 285.903C1094.48 284.972 1093.39 283.669 1092.62 281.993C1091.85 280.31 1091.47 278.342 1091.47 276.091C1091.47 274.401 1091.69 272.866 1092.13 271.489C1092.57 270.111 1093.19 268.932 1094.01 267.952C1094.83 266.964 1095.8 266.208 1096.93 265.683C1098.06 265.15 1099.31 264.884 1100.67 264.884C1101.91 264.884 1103.02 265.089 1104 265.501C1104.99 265.906 1105.84 266.453 1106.56 267.142C1107.29 267.824 1107.87 268.587 1108.32 269.433C1108.77 270.271 1109.07 271.126 1109.22 272H1107.86ZM1137.45 265.182V287H1136.15L1122.24 267.6H1122.11V287H1120.78V265.182H1122.09L1136 284.603H1136.13V265.182H1137.45ZM1149.75 287V265.182H1156.47C1157.86 265.182 1159.04 265.466 1160.03 266.034C1161.02 266.602 1161.79 267.38 1162.32 268.367C1162.85 269.354 1163.12 270.48 1163.12 271.744C1163.12 272.994 1162.85 274.113 1162.32 275.1C1161.79 276.087 1161.02 276.869 1160.03 277.444C1159.04 278.012 1157.86 278.296 1156.48 278.296H1150.69V277.06H1156.45C1157.57 277.06 1158.53 276.833 1159.33 276.379C1160.12 275.917 1160.73 275.288 1161.16 274.493C1161.59 273.69 1161.8 272.774 1161.8 271.744C1161.8 270.707 1161.59 269.788 1161.16 268.985C1160.73 268.183 1160.12 267.554 1159.32 267.099C1158.52 266.645 1157.56 266.418 1156.44 266.418H1151.08V287H1149.75ZM1174.24 287V265.182H1180.96C1182.34 265.182 1183.52 265.452 1184.52 265.991C1185.51 266.531 1186.27 267.281 1186.81 268.239C1187.34 269.191 1187.61 270.299 1187.61 271.563C1187.61 272.813 1187.34 273.914 1186.81 274.866C1186.27 275.81 1185.51 276.549 1184.52 277.082C1183.53 277.614 1182.35 277.881 1180.97 277.881H1174.95V276.634H1180.94C1182.06 276.634 1183.02 276.425 1183.81 276.006C1184.61 275.587 1185.22 275.001 1185.65 274.248C1186.07 273.488 1186.28 272.593 1186.28 271.563C1186.28 270.526 1186.07 269.624 1185.65 268.857C1185.22 268.083 1184.6 267.483 1183.8 267.057C1183.01 266.631 1182.05 266.418 1180.93 266.418H1175.57V287H1174.24ZM1183.19 277.114L1188.56 287H1187.03L1181.69 277.114H1183.19ZM1216.28 276.091C1216.28 278.342 1215.89 280.31 1215.11 281.993C1214.33 283.669 1213.24 284.972 1211.85 285.903C1210.46 286.833 1208.87 287.298 1207.06 287.298C1205.24 287.298 1203.63 286.833 1202.24 285.903C1200.86 284.965 1199.77 283.658 1198.99 281.982C1198.21 280.299 1197.82 278.335 1197.82 276.091C1197.82 273.839 1198.21 271.876 1198.99 270.2C1199.78 268.523 1200.87 267.22 1202.25 266.29C1203.64 265.352 1205.24 264.884 1207.06 264.884C1208.87 264.884 1210.46 265.349 1211.85 266.279C1213.24 267.21 1214.33 268.516 1215.11 270.2C1215.89 271.876 1216.28 273.839 1216.28 276.091ZM1214.98 276.091C1214.98 274.067 1214.64 272.312 1213.96 270.828C1213.28 269.344 1212.35 268.197 1211.16 267.387C1209.96 266.57 1208.6 266.162 1207.06 266.162C1205.51 266.162 1204.15 266.567 1202.95 267.376C1201.76 268.179 1200.82 269.326 1200.14 270.817C1199.47 272.302 1199.13 274.06 1199.13 276.091C1199.13 278.101 1199.46 279.852 1200.13 281.343C1200.81 282.827 1201.74 283.978 1202.93 284.795C1204.13 285.612 1205.5 286.02 1207.06 286.02C1208.6 286.02 1209.96 285.615 1211.16 284.805C1212.35 283.989 1213.28 282.838 1213.96 281.354C1214.64 279.869 1214.98 278.115 1214.98 276.091ZM1244.1 272H1242.74C1242.6 271.261 1242.33 270.548 1241.94 269.859C1241.55 269.163 1241.05 268.538 1240.43 267.984C1239.82 267.423 1239.11 266.979 1238.3 266.652C1237.49 266.325 1236.59 266.162 1235.61 266.162C1234.18 266.162 1232.86 266.545 1231.65 267.312C1230.45 268.072 1229.49 269.191 1228.76 270.668C1228.05 272.146 1227.69 273.953 1227.69 276.091C1227.69 278.243 1228.05 280.058 1228.76 281.535C1229.49 283.012 1230.45 284.131 1231.65 284.891C1232.86 285.643 1234.18 286.02 1235.61 286.02C1236.59 286.02 1237.49 285.86 1238.3 285.54C1239.11 285.214 1239.82 284.773 1240.43 284.219C1241.05 283.658 1241.55 283.03 1241.94 282.334C1242.33 281.638 1242.6 280.92 1242.74 280.182H1244.1C1243.95 281.062 1243.65 281.925 1243.2 282.771C1242.76 283.616 1242.18 284.383 1241.45 285.072C1240.73 285.754 1239.89 286.297 1238.91 286.702C1237.93 287.099 1236.84 287.298 1235.61 287.298C1233.8 287.298 1232.19 286.837 1230.81 285.913C1229.42 284.983 1228.34 283.676 1227.55 281.993C1226.77 280.31 1226.38 278.342 1226.38 276.091C1226.38 273.839 1226.77 271.872 1227.55 270.189C1228.34 268.506 1229.42 267.202 1230.81 266.279C1232.19 265.349 1233.8 264.884 1235.61 264.884C1236.84 264.884 1237.93 265.086 1238.91 265.491C1239.89 265.888 1240.73 266.428 1241.45 267.11C1242.18 267.785 1242.76 268.545 1243.2 269.39C1243.65 270.235 1243.95 271.105 1244.1 272ZM1255.22 287V265.182H1267.37V266.418H1256.56V275.462H1266.72V276.698H1256.56V285.764H1267.62V287H1255.22ZM1290.65 270.636C1290.54 269.28 1289.98 268.183 1288.99 267.344C1288 266.506 1286.72 266.087 1285.15 266.087C1284.1 266.087 1283.15 266.283 1282.33 266.673C1281.51 267.064 1280.86 267.597 1280.39 268.271C1279.92 268.946 1279.69 269.72 1279.69 270.594C1279.69 271.155 1279.8 271.663 1280.01 272.117C1280.23 272.565 1280.54 272.966 1280.94 273.321C1281.33 273.669 1281.81 273.974 1282.35 274.237C1282.9 274.5 1283.5 274.731 1284.16 274.93L1286.55 275.633C1287.37 275.881 1288.12 276.169 1288.81 276.496C1289.5 276.822 1290.11 277.213 1290.62 277.668C1291.14 278.115 1291.54 278.641 1291.82 279.244C1292.11 279.848 1292.26 280.544 1292.26 281.332C1292.26 282.483 1291.96 283.513 1291.36 284.422C1290.78 285.331 1289.93 286.048 1288.84 286.574C1287.75 287.092 1286.47 287.352 1284.99 287.352C1283.59 287.352 1282.36 287.114 1281.32 286.638C1280.28 286.162 1279.46 285.501 1278.86 284.656C1278.25 283.804 1277.91 282.824 1277.84 281.716H1279.2C1279.27 282.618 1279.56 283.399 1280.06 284.06C1280.57 284.713 1281.25 285.217 1282.1 285.572C1282.94 285.928 1283.91 286.105 1284.99 286.105C1286.17 286.105 1287.2 285.906 1288.09 285.509C1288.99 285.104 1289.69 284.543 1290.19 283.825C1290.7 283.108 1290.95 282.273 1290.95 281.322C1290.95 280.555 1290.77 279.898 1290.41 279.351C1290.04 278.804 1289.51 278.332 1288.8 277.934C1288.09 277.536 1287.22 277.181 1286.18 276.869L1283.63 276.102C1281.93 275.583 1280.62 274.876 1279.72 273.982C1278.83 273.087 1278.38 271.972 1278.38 270.636C1278.38 269.514 1278.68 268.52 1279.27 267.653C1279.87 266.78 1280.68 266.094 1281.7 265.597C1282.73 265.1 1283.89 264.852 1285.19 264.852C1286.49 264.852 1287.63 265.104 1288.63 265.608C1289.62 266.105 1290.41 266.79 1290.99 267.664C1291.57 268.531 1291.9 269.521 1291.96 270.636H1290.65ZM1315.28 270.636C1315.17 269.28 1314.62 268.183 1313.62 267.344C1312.63 266.506 1311.36 266.087 1309.79 266.087C1308.73 266.087 1307.79 266.283 1306.96 266.673C1306.14 267.064 1305.49 267.597 1305.02 268.271C1304.56 268.946 1304.32 269.72 1304.32 270.594C1304.32 271.155 1304.43 271.663 1304.64 272.117C1304.86 272.565 1305.17 272.966 1305.57 273.321C1305.97 273.669 1306.44 273.974 1306.98 274.237C1307.53 274.5 1308.14 274.731 1308.8 274.93L1311.18 275.633C1312 275.881 1312.75 276.169 1313.44 276.496C1314.14 276.822 1314.74 277.213 1315.25 277.668C1315.77 278.115 1316.17 278.641 1316.46 279.244C1316.75 279.848 1316.89 280.544 1316.89 281.332C1316.89 282.483 1316.59 283.513 1316 284.422C1315.41 285.331 1314.57 286.048 1313.47 286.574C1312.39 287.092 1311.1 287.352 1309.63 287.352C1308.22 287.352 1307 287.114 1305.95 286.638C1304.91 286.162 1304.09 285.501 1303.49 284.656C1302.89 283.804 1302.55 282.824 1302.47 281.716H1303.83C1303.9 282.618 1304.19 283.399 1304.69 284.06C1305.21 284.713 1305.88 285.217 1306.73 285.572C1307.57 285.928 1308.54 286.105 1309.63 286.105C1310.8 286.105 1311.83 285.906 1312.73 285.509C1313.62 285.104 1314.32 284.543 1314.83 283.825C1315.33 283.108 1315.58 282.273 1315.58 281.322C1315.58 280.555 1315.4 279.898 1315.04 279.351C1314.68 278.804 1314.14 278.332 1313.43 277.934C1312.73 277.536 1311.85 277.181 1310.81 276.869L1308.26 276.102C1306.56 275.583 1305.26 274.876 1304.35 273.982C1303.46 273.087 1303.01 271.972 1303.01 270.636C1303.01 269.514 1303.31 268.52 1303.91 267.653C1304.5 266.78 1305.31 266.094 1306.34 265.597C1307.36 265.1 1308.53 264.852 1309.82 264.852C1311.12 264.852 1312.27 265.104 1313.26 265.608C1314.25 266.105 1315.04 266.79 1315.62 267.664C1316.21 268.531 1316.53 269.521 1316.59 270.636H1315.28ZM1328.16 287V265.182H1340.3V266.418H1329.49V275.462H1339.65V276.698H1329.49V285.764H1340.56V287H1328.16ZM1368.49 265.182V287H1367.19L1353.28 267.6H1353.15V287H1351.82V265.182H1353.13L1367.05 284.603H1367.17V265.182H1368.49Z" fill="black"/>
<path d="M127.705 292.418V291.182H142.992V292.418H136.014V313H134.683V292.418H127.705ZM153.845 313V291.182H165.99V292.418H155.176V301.462H165.34V302.698H155.176V311.764H166.245V313H153.845ZM177.511 313V291.182H178.843V303.849H178.992L190.497 291.182H192.266L182.795 301.505L192.181 313H190.519L181.943 302.464L178.843 305.894V313H177.511ZM219.021 291.182V313H217.722L203.808 293.6H203.68V313H202.349V291.182H203.659L217.572 310.603H217.7V291.182H219.021ZM232.649 291.182V313H231.317V291.182H232.649ZM244.964 313V291.182H246.296V303.849H246.445L257.95 291.182H259.719L250.248 301.505L259.634 313H257.972L249.396 302.464L246.296 305.894V313H244.964Z" fill="black"/>
<path d="M1005.91 39.6364C1005.8 38.2798 1005.25 37.1825 1004.25 36.3445C1003.27 35.5064 1001.99 35.0874 1000.42 35.0874C999.359 35.0874 998.418 35.2827 997.594 35.6733C996.771 36.0639 996.124 36.5966 995.656 37.2713C995.187 37.946 994.952 38.7202 994.952 39.5938C994.952 40.1548 995.059 40.6626 995.272 41.1172C995.492 41.5646 995.801 41.9659 996.199 42.321C996.597 42.669 997.069 42.9744 997.616 43.2372C998.163 43.5 998.766 43.7308 999.427 43.9297L1001.81 44.6328C1002.63 44.8814 1003.38 45.169 1004.07 45.4957C1004.77 45.8224 1005.37 46.2131 1005.88 46.6676C1006.4 47.1151 1006.8 47.6406 1007.09 48.2443C1007.38 48.848 1007.52 49.544 1007.52 50.3324C1007.52 51.483 1007.23 52.5128 1006.63 53.4219C1006.04 54.331 1005.2 55.0483 1004.1 55.5739C1003.02 56.0923 1001.74 56.3516 1000.26 56.3516C998.852 56.3516 997.626 56.1136 996.582 55.6378C995.545 55.1619 994.725 54.5014 994.121 53.6562C993.518 52.804 993.177 51.8239 993.099 50.7159H994.462C994.533 51.6179 994.821 52.3991 995.325 53.0597C995.837 53.7131 996.515 54.2173 997.36 54.5724C998.205 54.9276 999.171 55.1051 1000.26 55.1051C1001.43 55.1051 1002.46 54.9062 1003.36 54.5085C1004.25 54.1037 1004.95 53.5426 1005.46 52.8253C1005.96 52.108 1006.21 51.2734 1006.21 50.3217C1006.21 49.5547 1006.03 48.8977 1005.67 48.3509C1005.31 47.804 1004.77 47.3317 1004.06 46.9339C1003.36 46.5362 1002.48 46.1811 1001.44 45.8686L998.894 45.1016C997.19 44.5831 995.886 43.8764 994.984 42.9815C994.089 42.0866 993.642 40.9716 993.642 39.6364C993.642 38.5142 993.94 37.5199 994.537 36.6534C995.134 35.7798 995.943 35.0945 996.966 34.5973C997.996 34.1001 999.157 33.8516 1000.45 33.8516C1001.75 33.8516 1002.9 34.1037 1003.89 34.608C1004.88 35.1051 1005.67 35.7905 1006.26 36.6641C1006.84 37.5305 1007.16 38.5213 1007.23 39.6364H1005.91ZM1017.94 56H1016.54L1024.41 34.1818H1025.95L1033.82 56H1032.41L1025.23 35.897H1025.12L1017.94 56ZM1019.94 47.7862H1030.42V49.022H1019.94V47.7862ZM1043.89 34.1818H1045.34L1053.74 54.0824H1053.89L1062.3 34.1818H1063.75V56H1062.47V37.3459H1062.34L1054.45 56H1053.19L1045.29 37.3459H1045.17V56H1043.89V34.1818ZM1075.21 56H1073.8L1081.67 34.1818H1083.21L1091.08 56H1089.68L1082.5 35.897H1082.39L1075.21 56ZM1077.2 47.7862H1087.68V49.022H1077.2V47.7862ZM1101.15 56V34.1818H1107.87C1109.25 34.1818 1110.44 34.4517 1111.43 34.9915C1112.43 35.5312 1113.19 36.2805 1113.72 37.2393C1114.26 38.1911 1114.52 39.299 1114.52 40.5632C1114.52 41.8132 1114.26 42.9141 1113.72 43.8658C1113.19 44.8104 1112.43 45.549 1111.43 46.0817C1110.44 46.6143 1109.26 46.8807 1107.88 46.8807H1101.87V45.6342H1107.85C1108.97 45.6342 1109.93 45.4247 1110.73 45.0057C1111.52 44.5866 1112.14 44.0007 1112.56 43.2479C1112.99 42.4879 1113.2 41.593 1113.2 40.5632C1113.2 39.5263 1112.99 38.6243 1112.56 37.8572C1112.14 37.0831 1111.52 36.483 1110.72 36.0568C1109.92 35.6307 1108.96 35.4176 1107.84 35.4176H1102.48V56H1101.15ZM1110.11 46.1136L1115.48 56H1113.95L1108.61 46.1136H1110.11ZM1125.84 56V34.1818H1132.93C1134.25 34.1818 1135.36 34.4162 1136.27 34.8849C1137.18 35.3537 1137.87 36.0107 1138.34 36.8558C1138.82 37.701 1139.05 38.6847 1139.05 39.8068C1139.05 40.6875 1138.91 41.4687 1138.63 42.1506C1138.34 42.8324 1137.95 43.397 1137.43 43.8445C1136.93 44.2848 1136.34 44.5902 1135.65 44.7607V44.8885C1136.41 44.9453 1137.11 45.2081 1137.75 45.6768C1138.4 46.1385 1138.92 46.767 1139.31 47.5625C1139.71 48.358 1139.91 49.2848 1139.91 50.343C1139.91 51.4581 1139.66 52.4418 1139.18 53.294C1138.71 54.1392 1137.99 54.8033 1137.04 55.2862C1136.09 55.7621 1134.91 56 1133.5 56H1125.84ZM1127.17 54.7642H1133.5C1135.14 54.7642 1136.4 54.3523 1137.28 53.5284C1138.17 52.7045 1138.62 51.6428 1138.62 50.343C1138.62 49.4268 1138.4 48.6065 1137.97 47.8821C1137.54 47.1577 1136.95 46.5859 1136.19 46.1669C1135.43 45.7408 1134.55 45.5277 1133.55 45.5277H1127.17V54.7642ZM1127.17 44.3132H1133.39C1134.32 44.3132 1135.1 44.1108 1135.75 43.706C1136.4 43.3011 1136.9 42.7578 1137.24 42.076C1137.59 41.3942 1137.76 40.6378 1137.76 39.8068C1137.76 38.4574 1137.34 37.3885 1136.51 36.6001C1135.67 35.8118 1134.48 35.4176 1132.93 35.4176H1127.17V44.3132ZM1151.15 56V34.1818H1163.29V35.4176H1152.48V44.4624H1162.64V45.6982H1152.48V54.7642H1163.55V56H1151.15ZM1183 34.1818H1184.33V50.0661C1184.33 51.5149 1184.08 52.6974 1183.57 53.6136C1183.08 54.5298 1182.4 55.2081 1181.56 55.6484C1180.72 56.0817 1179.78 56.2983 1178.74 56.2983C1177.67 56.2983 1176.72 56.0994 1175.87 55.7017C1175.03 55.2969 1174.37 54.7393 1173.88 54.0291C1173.39 53.3189 1173.15 52.4986 1173.15 51.5682H1174.47C1174.47 52.25 1174.65 52.8537 1175.02 53.3793C1175.39 53.8977 1175.91 54.3097 1176.55 54.6151C1177.2 54.9134 1177.93 55.0625 1178.74 55.0625C1179.52 55.0625 1180.23 54.8956 1180.88 54.5618C1181.52 54.228 1182.03 53.6953 1182.41 52.9638C1182.79 52.2322 1182.99 51.2663 1183 50.0661V34.1818ZM1202.69 56H1196.64V34.1818H1203.16C1205.2 34.1818 1206.95 34.6151 1208.41 35.4815C1209.86 36.348 1210.98 37.5909 1211.75 39.2102C1212.53 40.8224 1212.92 42.7578 1212.91 45.0163C1212.91 47.3246 1212.5 49.299 1211.7 50.9396C1210.9 52.5732 1209.74 53.8267 1208.22 54.7003C1206.7 55.5668 1204.85 56 1202.69 56ZM1197.97 54.7642H1202.63C1204.58 54.7642 1206.22 54.3771 1207.56 53.603C1208.89 52.8217 1209.9 51.7031 1210.58 50.2472C1211.27 48.7912 1211.61 47.0476 1211.6 45.0163C1211.6 43.0135 1211.27 41.2983 1210.61 39.8707C1209.95 38.4361 1208.99 37.3352 1207.73 36.5682C1206.47 35.8011 1204.93 35.4176 1203.1 35.4176H1197.97V54.7642ZM1224.11 56V34.1818H1236.26V35.4176H1225.44V44.4624H1235.61V45.6982H1225.44V54.7642H1236.51V56H1224.11Z" fill="black"/>
<path d="M49.8332 11.5C35.3816 11.5 23.7282 22.8083 22.9999 37.03L15.6399 46.7283C14.7199 47.9167 15.6399 49.8333 17.2499 49.8333H22.9999V61.3333C22.9999 65.5883 26.4116 69 30.6666 69H34.4999V80.5H61.3332V62.5217C70.4182 58.2283 76.6666 49.0667 76.6666 38.3333C76.6666 23.5367 64.7066 11.5 49.8332 11.5ZM38.3332 42.1667C36.2249 42.1667 34.4999 40.4417 34.4999 38.3333C34.4999 36.225 36.2249 34.5 38.3332 34.5C40.4416 34.5 42.1666 36.225 42.1666 38.3333C42.1666 40.4417 40.4416 42.1667 38.3332 42.1667ZM49.8332 42.1667C47.7249 42.1667 45.9999 40.4417 45.9999 38.3333C45.9999 36.225 47.7249 34.5 49.8332 34.5C51.9416 34.5 53.6666 36.225 53.6666 38.3333C53.6666 40.4417 51.9416 42.1667 49.8332 42.1667ZM61.3332 42.1667C59.2249 42.1667 57.4999 40.4417 57.4999 38.3333C57.4999 36.225 59.2249 34.5 61.3332 34.5C63.4416 34.5 65.1666 36.225 65.1666 38.3333C65.1666 40.4417 63.4416 42.1667 61.3332 42.1667Z" fill="black"/>
<g clip-path="url(#clip0_95_55)">
<path d="M944.813 32.5001H924.625V39.9376C924.625 45.2102 920.335 49.5001 915.063 49.5001C909.79 49.5001 905.5 45.2102 905.5 39.9376V23.7876L896.881 28.9672C894.317 30.4946 892.75 33.2704 892.75 36.2454V42.5274L882.125 48.6633C880.093 49.8321 879.389 52.4352 880.571 54.4672L891.196 72.8751C892.365 74.9071 894.968 75.5977 897 74.429L910.733 66.5001H928.875C933.563 66.5001 937.375 62.6883 937.375 58.0001H939.5C941.851 58.0001 943.75 56.1008 943.75 53.7501V45.2501H944.813C946.579 45.2501 948 43.829 948 42.0626V35.6876C948 33.9212 946.579 32.5001 944.813 32.5001ZM964.429 27.5329L953.804 9.12506C952.635 7.09303 950.032 6.4024 948 7.57115L934.267 15.5001H920.694C919.1 15.5001 917.546 15.9516 916.192 16.7883L911.742 19.5641C910.494 20.3344 909.75 21.7024 909.75 23.1633V39.9376C909.75 42.8727 912.127 45.2501 915.063 45.2501C917.998 45.2501 920.375 42.8727 920.375 39.9376V28.2501H944.813C948.917 28.2501 952.25 31.5837 952.25 35.6876V39.4727L962.875 33.3368C964.907 32.1547 965.598 29.5649 964.429 27.5329Z" fill="black"/>
</g>
<g clip-path="url(#clip1_95_55)">
<path fill-rule="evenodd" clip-rule="evenodd" d="M890.458 240.875C888.182 240.875 885.999 241.779 884.389 243.389C882.779 244.999 881.875 247.182 881.875 249.458V309.542C881.875 311.818 882.779 314.001 884.389 315.611C885.999 317.221 888.182 318.125 890.458 318.125H916.208C918.485 318.125 920.668 317.221 922.278 315.611C923.887 314.001 924.792 311.818 924.792 309.542V283.792H950.542C952.818 283.792 955.001 282.887 956.611 281.278C958.221 279.668 959.125 277.485 959.125 275.208V249.458C959.125 247.182 958.221 244.999 956.611 243.389C955.001 241.779 952.818 240.875 950.542 240.875H890.458ZM924.792 275.208H950.542V249.458H924.792V275.208ZM890.458 283.792V309.542H916.208V283.792H890.458ZM890.458 275.208H916.208V249.458H890.458V275.208Z" fill="black"/>
</g>
<path d="M22.8508 329.306C22.3574 329.306 21.9447 329.14 21.6127 328.808C21.283 328.478 21.1182 328.068 21.1182 327.577C21.1182 327.083 21.283 326.672 21.6127 326.342C21.9447 326.013 22.3562 325.848 22.8473 325.848H90.1534C90.6445 325.848 91.0549 326.013 91.3846 326.342C91.7166 326.672 91.8826 327.083 91.8826 327.577C91.8826 328.068 91.7166 328.478 91.3846 328.808C91.0526 329.138 90.6422 329.304 90.1534 329.306H22.8508ZM30.9606 322.389C29.3697 322.389 28.0417 321.856 26.9766 320.788C25.9091 319.723 25.3754 318.394 25.3754 316.801V283.013C25.3754 281.422 25.9091 280.094 26.9766 279.029C28.0441 277.964 29.3721 277.431 30.9606 277.431H82.0402C83.631 277.431 84.959 277.964 86.0242 279.029C87.0916 280.096 87.6254 281.425 87.6254 283.016V316.804C87.6254 318.395 87.0928 319.723 86.0276 320.788C84.9625 321.853 83.6333 322.387 82.0402 322.389H30.9606ZM30.9606 318.931H82.0402C82.5704 318.931 83.0581 318.709 83.503 318.264C83.9457 317.821 84.167 317.333 84.167 316.801V283.013C84.167 282.483 83.9457 281.996 83.503 281.553C83.0581 281.111 82.5704 280.889 82.0402 280.889H30.9606C30.4303 280.889 29.9427 281.111 29.4977 281.553C29.055 281.996 28.8337 282.484 28.8337 283.016V316.804C28.8337 317.334 29.055 317.821 29.4977 318.264C29.9427 318.709 30.4303 318.931 30.9606 318.931Z" fill="black"/>
<defs>
<clipPath id="clip0_95_55">
<rect width="85" height="68" fill="white" transform="translate(880 7)"/>
</clipPath>
<clipPath id="clip1_95_55">
<rect width="103" height="103" fill="white" transform="translate(869 228)"/>
</clipPath>
</defs>
</svg>
